<svg width="293" height="414" viewBox="0 0 293 414" fill="none" xmlns="http://www.w3.org/2000/svg">
<path d="M51 283C58.7778 269.667 66.5556 269.667 74.3333 283C82.1111 296.333 89.8889 296.333 97.6667 283C105.444 269.667 113.222 269.667 121 283C128.778 296.333 136.556 296.333 144.333 283C152.111 269.667 159.889 269.667 167.667 283C175.444 296.333 183.222 296.333 191 283" stroke="#458FD9" stroke-width="8" stroke-linecap="round"/>
<path d="M4 315C11.7778 301.667 19.5556 301.667 27.3333 315C35.1111 328.333 42.8889 328.333 50.6667 315C58.4444 301.667 66.2222 301.667 74 315C81.7778 328.333 89.5556 328.333 97.3333 315C105.111 301.667 112.889 301.667 120.667 315C128.444 328.333 136.222 328.333 144 315" stroke="#FFB8FC" stroke-width="8" stroke-linecap="round"/>
<path d="M193.131 16.3989L179.37 41.1225L165.076 12.7189L193.131 16.3989Z" fill="#844FDA"/>
<path d="M278.558 401.455L251.061 394.781L274.627 373.434L278.558 401.455Z" fill="#5AFADF"/>
</svg>
