<svg width="229" height="389" viewBox="0 0 229 389" fill="none" xmlns="http://www.w3.org/2000/svg">
<path d="M84 14C91.7778 0.666667 99.5556 0.666667 107.333 14C115.111 27.3333 122.889 27.3333 130.667 14C138.444 0.666667 146.222 0.666667 154 14C161.778 27.3333 169.556 27.3333 177.333 14C185.111 0.666667 192.889 0.666667 200.667 14C208.444 27.3333 216.222 27.3333 224 14" stroke="#5AFADF" stroke-width="8" stroke-linecap="round"/>
<path d="M37 46C44.7778 32.6667 52.5556 32.6667 60.3333 46C68.1111 59.3333 75.8889 59.3333 83.6667 46C91.4444 32.6667 99.2222 32.6667 107 46C114.778 59.3333 122.556 59.3333 130.333 46C138.111 32.6667 145.889 32.6667 153.667 46C161.444 59.3333 169.222 59.3333 177 46" stroke="#FFB8FC" stroke-width="8" stroke-linecap="round"/>
<path d="M33.2734 313.223L55.1744 331.139L24.6909 340.186L33.2734 313.223Z" fill="#844FDA"/>
<path d="M61.4195 345.492L65.5867 366.246L43.6627 357.015L61.4195 345.492Z" fill="#FFB8FC"/>
<path d="M37.7841 349.652L33.2902 380.196L7.73409 356.733L37.7841 349.652Z" fill="#5AFADF"/>
</svg>
