<svg width="500" height="500" viewBox="0 0 500 500" fill="none" xmlns="http://www.w3.org/2000/svg">
<rect width="500" height="500" fill="white"/>
<rect width="500" height="500" fill="#FF98FB"/>
<path d="M359.414 191.342C359.414 211.544 353.939 228.571 342.989 242.424C332.327 255.988 317.919 266.378 299.766 273.593L378 400H297.604L232.769 285.281H212.886V400H142V100H236.227C277.433 100 308.266 107.504 328.725 122.511C349.184 137.518 359.414 160.462 359.414 191.342ZM286.366 191.342C286.366 176.912 282.188 166.378 273.832 159.74C265.763 153.102 253.228 149.784 236.227 149.784H212.886V236.364H239.253C254.813 236.364 266.484 232.756 274.264 225.541C282.332 218.326 286.366 206.926 286.366 191.342Z" fill="#7A35D2"/>
</svg>
